<mxfile host="app.diagrams.net" agent="Mozilla/5.0 (Windows NT 10.0; Win64; x64) AppleWebKit/537.36 (KHTML, like Gecko) Chrome/131.0.0.0 Safari/537.36" version="25.0.3">
  <diagram name="第 1 页" id="1_fF-a4BtE-6CmWA3b46">
    <mxGraphModel dx="1434" dy="746" grid="0" gridSize="10" guides="1" tooltips="1" connect="1" arrows="1" fold="1" page="1" pageScale="1" pageWidth="827" pageHeight="1169" math="0" shadow="0">
      <root>
        <mxCell id="0" />
        <mxCell id="1" parent="0" />
        <mxCell id="34x7TGWdKsRaXxAX4ew2-7" value="" style="rounded=0;whiteSpace=wrap;html=1;" vertex="1" parent="1">
          <mxGeometry x="388" y="163.5" width="180" height="283" as="geometry" />
        </mxCell>
        <mxCell id="34x7TGWdKsRaXxAX4ew2-1" value="&lt;font face=&quot;Courier New&quot;&gt;画图工具的使用&lt;/font&gt;" style="text;html=1;align=center;verticalAlign=middle;whiteSpace=wrap;rounded=0;" vertex="1" parent="1">
          <mxGeometry x="310" y="40" width="130" height="30" as="geometry" />
        </mxCell>
        <mxCell id="34x7TGWdKsRaXxAX4ew2-2" value="" style="rounded=0;whiteSpace=wrap;html=1;" vertex="1" parent="1">
          <mxGeometry x="77" y="155" width="190" height="300" as="geometry" />
        </mxCell>
        <mxCell id="34x7TGWdKsRaXxAX4ew2-3" value="本地widows电脑" style="text;html=1;align=center;verticalAlign=middle;whiteSpace=wrap;rounded=0;" vertex="1" parent="1">
          <mxGeometry x="115" y="160" width="114" height="30" as="geometry" />
        </mxCell>
        <mxCell id="34x7TGWdKsRaXxAX4ew2-6" value="&lt;font style=&quot;font-size: 14px;&quot;&gt;1、安装nodejs&lt;/font&gt;&lt;div&gt;&lt;font size=&quot;3&quot;&gt;2、安装hexo&lt;/font&gt;&lt;/div&gt;&lt;div&gt;&lt;font size=&quot;3&quot;&gt;3、hexo把markdown转化成静态网页&lt;/font&gt;&lt;/div&gt;&lt;div&gt;&lt;font size=&quot;3&quot;&gt;4、安装rsync&lt;/font&gt;&lt;/div&gt;&lt;div&gt;&lt;font size=&quot;3&quot;&gt;5、部署到服务器&lt;/font&gt;&lt;/div&gt;" style="text;html=1;align=left;verticalAlign=middle;whiteSpace=wrap;rounded=0;" vertex="1" parent="1">
          <mxGeometry x="93" y="235" width="149" height="141" as="geometry" />
        </mxCell>
        <mxCell id="34x7TGWdKsRaXxAX4ew2-9" value="nginx" style="text;html=1;align=center;verticalAlign=middle;whiteSpace=wrap;rounded=0;" vertex="1" parent="1">
          <mxGeometry x="452" y="224" width="60" height="30" as="geometry" />
        </mxCell>
        <mxCell id="34x7TGWdKsRaXxAX4ew2-11" value="" style="endArrow=classic;html=1;rounded=0;exitX=0.915;exitY=0.964;exitDx=0;exitDy=0;exitPerimeter=0;" edge="1" parent="1">
          <mxGeometry width="50" height="50" relative="1" as="geometry">
            <mxPoint x="241.99500000000003" y="373.924" as="sourcePoint" />
            <mxPoint x="465.93152754616307" y="257" as="targetPoint" />
          </mxGeometry>
        </mxCell>
        <mxCell id="34x7TGWdKsRaXxAX4ew2-13" value="rsync同步推送到nginx" style="text;html=1;align=center;verticalAlign=middle;whiteSpace=wrap;rounded=0;" vertex="1" parent="1">
          <mxGeometry x="292" y="279" width="60" height="30" as="geometry" />
        </mxCell>
        <mxCell id="34x7TGWdKsRaXxAX4ew2-14" value="浏览器" style="ellipse;shape=cloud;whiteSpace=wrap;html=1;" vertex="1" parent="1">
          <mxGeometry x="195" y="581" width="120" height="80" as="geometry" />
        </mxCell>
        <mxCell id="34x7TGWdKsRaXxAX4ew2-15" value="浏览器" style="ellipse;shape=cloud;whiteSpace=wrap;html=1;" vertex="1" parent="1">
          <mxGeometry x="356" y="579" width="120" height="80" as="geometry" />
        </mxCell>
        <mxCell id="34x7TGWdKsRaXxAX4ew2-16" value="浏览器" style="ellipse;shape=cloud;whiteSpace=wrap;html=1;" vertex="1" parent="1">
          <mxGeometry x="517" y="587" width="120" height="80" as="geometry" />
        </mxCell>
        <mxCell id="34x7TGWdKsRaXxAX4ew2-19" value="" style="endArrow=classic;html=1;rounded=0;" edge="1" parent="1" target="34x7TGWdKsRaXxAX4ew2-7">
          <mxGeometry width="50" height="50" relative="1" as="geometry">
            <mxPoint x="271" y="578" as="sourcePoint" />
            <mxPoint x="437" y="338" as="targetPoint" />
          </mxGeometry>
        </mxCell>
        <mxCell id="34x7TGWdKsRaXxAX4ew2-20" value="" style="endArrow=classic;html=1;rounded=0;entryX=0.411;entryY=1.002;entryDx=0;entryDy=0;entryPerimeter=0;" edge="1" parent="1" target="34x7TGWdKsRaXxAX4ew2-7">
          <mxGeometry width="50" height="50" relative="1" as="geometry">
            <mxPoint x="434" y="585" as="sourcePoint" />
            <mxPoint x="484" y="535" as="targetPoint" />
          </mxGeometry>
        </mxCell>
        <mxCell id="34x7TGWdKsRaXxAX4ew2-22" value="腾讯云服务器" style="text;html=1;align=center;verticalAlign=middle;whiteSpace=wrap;rounded=0;" vertex="1" parent="1">
          <mxGeometry x="446" y="180" width="60" height="30" as="geometry" />
        </mxCell>
        <mxCell id="34x7TGWdKsRaXxAX4ew2-24" value="" style="endArrow=classic;html=1;rounded=0;entryX=0.411;entryY=1.002;entryDx=0;entryDy=0;entryPerimeter=0;exitX=0.4;exitY=0.1;exitDx=0;exitDy=0;exitPerimeter=0;" edge="1" parent="1" source="34x7TGWdKsRaXxAX4ew2-16">
          <mxGeometry width="50" height="50" relative="1" as="geometry">
            <mxPoint x="444" y="595" as="sourcePoint" />
            <mxPoint x="472" y="457" as="targetPoint" />
          </mxGeometry>
        </mxCell>
      </root>
    </mxGraphModel>
  </diagram>
</mxfile>
